<svg height="512pt" viewBox="-24 0 512 512" width="512pt" xmlns="http://www.w3.org/2000/svg"><g fill="#e5ebf5"><path d="m7.5 150.273438h449.410156v354.226562h-449.410156zm0 0"/><path d="m129.472656 102.683594h-27.109375c-3.050781-3.050782-4.757812-4.757813-7.808593-7.808594v-79.566406c3.050781-3.050782 4.757812-4.757813 7.808593-7.808594h27.109375c3.046875 3.050781 4.757813 4.757812 7.804688 7.808594v79.566406c-3.046875 3.050781-4.757813 4.757812-7.804688 7.808594zm0 0"/><path d="m334.9375 102.683594h27.109375c3.050781-3.050782 4.757813-4.757813 7.808594-7.808594v-79.566406c-3.050781-3.050782-4.757813-4.757813-7.808594-7.808594h-27.109375c-3.046875 3.050781-4.757812 4.757812-7.804688 7.808594v79.566406c3.046876 3.050781 4.757813 4.757812 7.804688 7.808594zm0 0"/></g><path d="m369.855469 55.089844v39.785156c-3.050781 3.050781-4.757813 4.757812-7.808594 7.808594h-27.109375c-3.046875-3.050782-4.757812-4.757813-7.804688-7.808594v-39.785156h-189.855468v39.785156c-3.046875 3.050781-4.757813 4.757812-7.804688 7.808594h-27.109375c-3.050781-3.050782-4.757812-4.757813-7.808593-7.808594v-39.785156h-87.054688v95.183594h449.410156v-95.183594zm0 0" fill="#d15573"/><path d="m370.164062 258.371094-49.675781-49.679688-124.570312 124.574219-51.996094-51.996094-49.675781 49.675781 101.671875 101.671876zm0 0" fill="#e2fc85"/><path d="m7.5 150.273438h30v354.226562h-30zm0 0" fill="#cad8ea"/><path d="m124.554688 94.875v-79.566406c2.53125-2.53125 4.144531-4.148438 6.363281-6.363282l-1.445313-1.445312h-27.109375c-3.050781 3.050781-4.757812 4.757812-7.808593 7.808594v79.566406l7.808593 7.808594h27.109375l1.445313-1.445313c-2.21875-2.21875-3.832031-3.835937-6.363281-6.363281zm0 0" fill="#cad8ea"/><path d="m357.132812 94.875v-79.566406c2.527344-2.53125 4.144532-4.148438 6.359376-6.363282-.453126-.453124-.925782-.925781-1.445313-1.445312h-27.109375c-3.046875 3.050781-4.757812 4.757812-7.804688 7.808594v79.566406c3.046876 3.050781 4.757813 4.757812 7.804688 7.808594h27.109375l1.445313-1.445313c-2.214844-2.21875-3.832032-3.835937-6.359376-6.363281zm0 0" fill="#cad8ea"/><path d="m364.9375 102.683594h27.109375c3.050781-3.050782 4.757813-4.757813 7.808594-7.808594v-39.785156h-30v39.785156c-2.53125 2.527344-4.144531 4.144531-6.363281 6.359375zm0 0" fill="#c21d44"/><path d="m7.5 55.089844h30v95.183594h-30zm0 0" fill="#c21d44"/><path d="m132.363281 102.683594h27.109375c3.046875-3.050782 4.757813-4.757813 7.804688-7.808594v-39.785156h-30v39.785156c-2.527344 2.527344-4.144532 4.144531-6.359375 6.359375zm0 0" fill="#c21d44"/><path d="m124.246094 330.945312 34.675781-34.675781-15-15-49.675781 49.675781 101.671875 101.671876 15-15zm0 0" fill="#6ad34d"/><path d="m252.203125 110.183594h-15v-15h15zm-25 0h-15v-15h15zm0 0" fill="#fff"/><path d="m449.410156 497h-434.410156v-326.726562h-15v341.726562h464.410156v-341.726562h-15zm0 0"/><path d="m132.578125 110.183594 12.199219-12.203125v-85.78125l-12.199219-12.199219h-33.320313l-12.203124 12.199219v85.78125l12.203124 12.203125zm-30.523437-91.769532 3.414062-3.414062h20.894531l3.414063 3.414062v73.355469l-3.414063 3.414063h-20.894531l-3.414062-3.414063zm0 0"/><path d="m365.152344 110.183594 12.203125-12.203125v-85.78125l-12.203125-12.199219h-33.320313l-12.199219 12.199219v85.78125l12.199219 12.203125zm-30.519532-91.769532 3.414063-3.414062h20.894531l3.414063 3.414062v73.355469l-3.414063 3.414063h-20.894531l-3.414063-3.414063zm0 0"/><path d="m389.855469 47.589844v15h59.554687v80.183594h-434.410156v-80.183594h59.554688v-15h-74.554688v110.183594h464.410156v-110.183594zm0 0"/><path d="m157.277344 47.589844h149.855468v15h-149.855468zm0 0"/><path d="m320.488281 198.085938-124.570312 124.570312-51.996094-51.996094-60.285156 60.285156 112.277343 112.277344 184.855469-184.851562zm-215.636719 132.859374 39.070313-39.070312 51.996094 51.996094 124.570312-124.570313 39.070313 39.070313-163.640625 163.640625zm0 0"/></svg>