<svg id="Capa_1" enable-background="new 0 0 512 512" height="512" viewBox="0 0 512 512" width="512" xmlns="http://www.w3.org/2000/svg"><g><path d="m484.322 398.149h-456.644v-280.987c0-6.308 5.114-11.421 11.421-11.421h433.8c6.308 0 11.422 5.114 11.422 11.421v280.987z" fill="#4a80aa"/><path d="m484.322 117.162c0-6.308-5.114-11.421-11.421-11.421h-18.776c6.308 0 11.422 5.114 11.422 11.421v236.68c0 14.647-11.874 26.52-26.52 26.52h-411.349v17.786h437.867 18.776v-17.786-263.2z" fill="#407093"/><path d="m58.584 398.149v-259.768c0-.958.777-1.735 1.735-1.735h391.361c.958 0 1.735.777 1.735 1.735v259.767h-394.831z" fill="#d3effb"/><path d="m428.395 136.646v224.919c0 10.382-8.416 18.798-18.798 18.798h-351.013v17.786h369.811 25.021v-17.786-241.982c0-.958-.777-1.735-1.735-1.735z" fill="#b1e4f9"/><path d="m498.121 456.931h-484.242c-7.665 0-13.879-6.213-13.879-13.879v-31.025c0-7.665 6.214-13.879 13.879-13.879h484.242c7.665 0 13.879 6.214 13.879 13.879v31.025c0 7.666-6.214 13.879-13.879 13.879z" fill="#365e7d"/><path d="m498.121 398.149h-24.268c7.665 0 13.879 6.214 13.879 13.879v31.025c0 7.665-6.214 13.879-13.879 13.879h24.268c7.665 0 13.879-6.214 13.879-13.879v-31.025c0-7.666-6.214-13.879-13.879-13.879z" fill="#2b4d66"/><path d="m293.267 427.54h-74.533c-3.045 0-5.818-1.751-7.128-4.5l-11.857-24.891h112.502l-11.857 24.891c-1.309 2.749-4.083 4.5-7.127 4.5z" fill="#4a80aa"/><path d="m415.253 268.899h-138.794c-11.299 0-20.459-9.16-20.459-20.459l-23.862-9.29v-130.713l23.862-10.134c0-23.877 19.357-43.234 43.234-43.234h116.019c2.995 0 5.423 2.428 5.423 5.423v202.985c0 2.994-2.428 5.422-5.423 5.422z" fill="#fff6f4"/><path d="m415.253 55.069h-18.215c2.995 0 5.423 2.428 5.423 5.423v202.985c0 2.995-2.428 5.423-5.423 5.423h18.215c2.995 0 5.423-2.428 5.423-5.423v-202.986c0-2.994-2.428-5.422-5.423-5.422z" fill="#d8e2f1"/><path d="m235.541 268.899h-138.794c-2.995 0-5.423-2.428-5.423-5.423v-202.985c0-2.995 2.428-5.423 5.423-5.423h116.019c23.878 0 43.234 19.357 43.234 43.234v150.138c0 11.299-9.16 20.459-20.459 20.459z" fill="#fff6f4"/><path d="m212.766 55.069h-18.708c23.877 0 43.234 19.357 43.234 43.234v150.137c0 11.299-9.16 20.459-20.459 20.459h18.708c11.299 0 20.459-9.16 20.459-20.459v-150.137c0-23.878-19.357-43.234-43.234-43.234z" fill="#d8e2f1"/><g><g><path d="m216.241 104.943h-85.157c-4.267 0-7.726-3.459-7.726-7.726 0-4.268 3.459-7.726 7.726-7.726h85.157c4.267 0 7.726 3.459 7.726 7.726s-3.459 7.726-7.726 7.726z" fill="#d8e2f1"/></g><g><path d="m216.241 148.121h-85.157c-4.267 0-7.726-3.459-7.726-7.726s3.459-7.726 7.726-7.726h85.157c4.267 0 7.726 3.459 7.726 7.726s-3.459 7.726-7.726 7.726z" fill="#d8e2f1"/></g><g><path d="m216.241 191.299h-85.157c-4.267 0-7.726-3.459-7.726-7.726 0-4.268 3.459-7.726 7.726-7.726h85.157c4.267 0 7.726 3.459 7.726 7.726s-3.459 7.726-7.726 7.726z" fill="#d8e2f1"/></g><g><path d="m216.241 234.478h-85.157c-4.267 0-7.726-3.459-7.726-7.726 0-4.268 3.459-7.726 7.726-7.726h85.157c4.267 0 7.726 3.459 7.726 7.726s-3.459 7.726-7.726 7.726z" fill="#d8e2f1"/></g><g><path d="m380.917 104.943h-85.158c-4.268 0-7.726-3.459-7.726-7.726 0-4.268 3.459-7.726 7.726-7.726h85.158c4.268 0 7.726 3.459 7.726 7.726s-3.458 7.726-7.726 7.726z" fill="#d8e2f1"/></g><g><path d="m380.917 148.121h-85.158c-4.268 0-7.726-3.459-7.726-7.726s3.459-7.726 7.726-7.726h85.158c4.268 0 7.726 3.459 7.726 7.726s-3.458 7.726-7.726 7.726z" fill="#d8e2f1"/></g><g><path d="m380.917 191.299h-85.158c-4.268 0-7.726-3.459-7.726-7.726 0-4.268 3.459-7.726 7.726-7.726h85.158c4.268 0 7.726 3.459 7.726 7.726s-3.458 7.726-7.726 7.726z" fill="#d8e2f1"/></g><g><path d="m380.917 234.478h-85.158c-4.268 0-7.726-3.459-7.726-7.726 0-4.268 3.459-7.726 7.726-7.726h85.158c4.268 0 7.726 3.459 7.726 7.726s-3.458 7.726-7.726 7.726z" fill="#d8e2f1"/></g></g><path d="m328.283 357.621h-144.566c-5.458 0-9.883-4.425-9.883-9.883v-36.746c0-5.458 4.425-9.883 9.883-9.883h144.566c5.458 0 9.883 4.425 9.883 9.883v36.746c0 5.458-4.425 9.883-9.883 9.883z" fill="#80e29d"/><path d="m328.283 301.108h-21.801c5.458 0 9.883 4.425 9.883 9.883v36.746c0 5.458-4.425 9.883-9.883 9.883h21.801c5.458 0 9.883-4.425 9.883-9.883v-36.746c0-5.458-4.425-9.883-9.883-9.883z" fill="#66b49d"/></g></svg>