<svg id="Layer_35" enable-background="new 0 0 64 64" height="512" viewBox="0 0 64 64" width="512" xmlns="http://www.w3.org/2000/svg"><path d="m21.46 27.65c.49-.25.68-.85.43-1.34l-.9-1.77c-.25-.49-.85-.68-1.33-.43l-3.66 1.99v-20.1c0-2.21 1.79-4 4-4h38c2.21 0 4 1.79 4 4v24h-41.29l-.76-1.53z" fill="#69d6f4"/><path d="m39 6c5.52 0 10 4.48 10 10s-4.48 10-10 10-10-4.48-10-10 4.48-10 10-10z" fill="#e6e9ed"/><path d="m43 16-8 4v-8z" fill="#ff826e"/><path d="m17 42h41c2.209 0 4-1.791 4-4v-8h-45z" fill="#aab2bd"/><path d="m39 42v6.1c-.23-.07-.47-.1-.72-.1-.81 0-1.58.36-2.1.98l-4.18 5.02h-1l-3.66-5.23c-.11-.16-.22-.31-.35-.46h.01v-14.31h12v2z" fill="#b4dd7f"/><path d="m24 54.67v7.33h-17v-8c0-5.52 4.48-10 10-10h1.18c3.46 0 6.71 1.6 8.81 4.31.13.15.24.3.35.46l3.66 5.23h1l4.18-5.02c.52-.62 1.29-.98 2.1-.98.25 0 .49.03.72.1 1.15.31 2 1.37 2 2.62v.37c0 .59-.19 1.16-.54 1.64l-3.36 4.47c-.66.88-1.51 1.58-2.47 2.06s-2.03.74-3.13.74c-2.2 0-4.28-1.04-5.6-2.8z" fill="#fcd770"/><path d="m23 38c0 3.31-2.69 6-6 6-3.09 0-5.63-2.33-5.96-5.33 1.37-.39 3.61-1.1 5.3-1.98 1.66-.88 3.5-2.3 4.61-3.21 1.25 1.1 2.05 2.72 2.05 4.52z" fill="#fcd770"/><path d="m7.83 35.08-1.49.81c-.48.25-1.08.06-1.33-.43l-.08-.15-.82-1.62c-.25-.49-.06-1.09.43-1.34l11.46-6.25 3.66-1.99c.48-.25 1.08-.06 1.33.43l.9 1.77c.25.49.06 1.09-.43 1.34l-1.51.82z" fill="#aab2bd"/><path d="m20.71 30 1.29 2.58s-.4.36-1.05.9c-1.11.91-2.95 2.33-4.61 3.21-1.69.88-3.93 1.59-5.3 1.98-.76.21-1.25.33-1.25.33l-1.96-3.92 12.12-6.61z" fill="#969faa"/><path d="m4 43c1.1 0 2 1.9 2 3s-.9 2-2 2-2-.9-2-2 .9-3 2-3z" fill="#fcd770"/><path d="m39 27c6.065 0 11-4.935 11-11s-4.935-11-11-11-11 4.935-11 11 4.935 11 11 11zm0-20c4.962 0 9 4.037 9 9s-4.038 9-9 9-9-4.037-9-9 4.038-9 9-9z"/><path d="m34 10.382v11.236l11.236-5.618zm2 3.236 4.764 2.382-4.764 2.382z"/><path d="m58 1h-38c-2.757 0-5 2.243-5 5v19.509l-10.917 5.953c-.976.501-1.364 1.703-.865 2.681l.485.952c-.44.529-.703 1.191-.703 1.905v5.285c-1.228.669-2 2.442-2 3.715 0 1.654 1.346 3 3 3s3-1.346 3-3c0-1.273-.772-3.046-2-3.715v-5.285c0-.071.012-.14.026-.208.083.04.166.082.256.111.199.065.404.097.608.097.315 0 .632-.077.933-.231l.577-.315 1.844 3.703.773-.185c.022-.005.111-.027.251-.062.449 1.593 1.439 2.938 2.753 3.846-4.102 1.599-7.021 5.583-7.021 10.244v9h19v-5.333l.1.133c1.503 2.004 3.896 3.2 6.4 3.2s4.897-1.196 6.4-3.2l3.355-4.474c.48-.64.745-1.434.745-2.234v-.368c0-1.428-.817-2.656-2-3.281v-4.443h18c2.757 0 5-2.243 5-5v-32c0-2.757-2.243-5-5-5zm-41 5c0-1.654 1.346-3 3-3h38c1.654 0 3 1.346 3 3v23h-39.668l-.056-.113.641-.349c.976-.501 1.364-1.703.865-2.681l-.902-1.77c-.242-.476-.655-.827-1.162-.991-.507-.163-1.046-.118-1.541.135l-2.177 1.187zm-13 41c-.551 0-1-.448-1-1 0-.82.68-1.956.997-2 .323.044 1.003 1.18 1.003 2 0 .552-.449 1-1 1zm1.902-11.996-.883-1.774 15.08-8.233.901 1.769zm3.255.492 10.362-5.65 1.24 2.489c-.984.832-3.065 2.512-4.885 3.467-1.8.946-4.309 1.689-5.555 2.027zm3.041 3.874c1.38-.421 3.165-1.04 4.605-1.797 1.416-.744 2.923-1.844 4.057-2.739.728.888 1.14 2.002 1.14 3.166 0 2.757-2.243 5-5 5-2.27 0-4.203-1.514-4.802-3.63zm25.802 7.66c-1.003.075-1.936.53-2.585 1.31l-3.883 4.66-3.375-4.805c-.049-.07-.107-.13-.157-.198v-12.997h10zm-12-1.17c-1.346-1.128-2.919-1.95-4.612-2.414.215-.174.419-.359.612-.557v.111h4zm14 5.232c0 .37-.123.738-.345 1.035l-3.355 4.474c-1.127 1.502-2.922 2.399-4.8 2.399s-3.673-.897-4.8-2.399l-3.9-5.2-1.6 1.199 1.8 2.4v6h-15v-7c0-4.963 4.038-9 9-9h1.179c3.319 0 6.437 1.623 8.339 4.342l3.961 5.658h1.989l4.483-5.379c.329-.394.812-.621 1.325-.621.951 0 1.724.773 1.724 1.724zm18-10.092h-18v-4h19v-2h-19v-2h-14v8h-2.685c.434-.911.685-1.926.685-3 0-1.632-.578-3.194-1.599-4.437.149-.13.247-.216.267-.234l.567-.508-.907-1.821h38.672v7c0 1.654-1.346 3-3 3z"/><path d="m30 41h6v2h-6z"/><path d="m30 45h4v2h-4z"/><path d="m30 37h6v2h-6z"/><path d="m19 13h2v2h-2z"/><path d="m57 25h2v2h-2z"/><path d="m57 21h2v2h-2z"/><path d="m57 17h2v2h-2z"/><path d="m21 7h8v-2h-8c-1.103 0-2 .897-2 2v4h2z"/></svg>