<svg height="512" viewBox="0 0 512 512" width="512" xmlns="http://www.w3.org/2000/svg"><g id="filled_outline" data-name="filled outline"><path d="m280 248h98.264a20 20 0 0 1 10.6 3.04l59.136 36.96-8 32-57.044-32.35-18.956-12.397z" fill="#55300b"/><path d="m348.838 164.744 19.162-28.744 24 40z" fill="#027e2a"/><path d="m328 152 64 24-32 72-64-24z" fill="#02a437"/><path d="m208 192-48 104h32l24-48z" fill="#fdc9a6"/><path d="m192.914 224.686 31.086 23.314 16-24-24-40-8 8z" fill="#2cbff4"/><path d="m112 296h208a48 48 0 0 1 48 48 48 48 0 0 1 -48 48h-208a0 0 0 0 1 0 0v-96a0 0 0 0 1 0 0z" fill="#d32b39"/><rect fill="#fdc9a6" height="80" rx="32" width="64" x="208" y="88"/><path d="m272 112h-48l-16 16-11.631-29.078a22.362 22.362 0 0 1 2.156-20.71 22.363 22.363 0 0 1 25.675-8.812l7.8 2.6 6.274-12.549a23.634 23.634 0 0 1 29.917-11.374 23.635 23.635 0 0 1 13.948 28.437z" fill="#683b0d"/><path d="m224 168-16 24v33.39a28 28 0 0 0 2.956 12.522l29.044 58.088 40-48-16-24-8-56z" fill="#0296e5"/><path d="m232 224 90.325 20.844a17.822 17.822 0 0 0 19.951-9.4 17.825 17.825 0 0 0 -11.253-25.168l-67.023-18.276z" fill="#fdc9a6"/><path d="m264 192-4.326-17.3a19.4 19.4 0 0 0 -18.823-14.7 19.4 19.4 0 0 0 -18.824 24.109l9.973 39.891z" fill="#2cbff4"/><path d="m280 248 86.536 21.634a20 20 0 0 1 13.426 11.28l28.038 63.086-24 24-32-72h-112z" fill="#683b0d"/><path d="m448 288 16-8 24 8-16 40-32-8z" fill="#cbcbcb"/><path d="m408 344 32 16v24l-48 8-8-24z" fill="#cbcbcb"/><path d="m128 400h-40a8 8 0 0 1 0-16h40a8 8 0 0 1 0 16z" fill="#d32b39"/><path d="m112 328h208a16 16 0 0 1 16 16 16 16 0 0 1 -16 16h-208z" fill="#cbcbcb"/><path d="m80 392h208a48 48 0 0 1 48 48 48 48 0 0 1 -48 48h-208a0 0 0 0 1 0 0v-96a0 0 0 0 1 0 0z" fill="#ea9d2d" transform="matrix(-1 0 0 -1 416 880)"/><path d="m336 424h-208a16 16 0 0 0 -16 16 16 16 0 0 0 16 16h208z" fill="#cbcbcb"/><path d="m137.373 174.627-1.373 1.373h-48l-1.373-1.373a77.254 77.254 0 0 1 -22.627-54.627 48 48 0 0 1 48-48 48 48 0 0 1 48 48 77.254 77.254 0 0 1 -22.627 54.627z" fill="#ea9d2d"/><path d="m133.657 114.343a8 8 0 0 0 -11.314 0l-10.343 10.344-10.343-10.344a8 8 0 0 0 -11.314 11.314l13.657 13.657v36.686a8 8 0 0 0 16 0v-36.686l13.657-13.657a8 8 0 0 0 0-11.314z" fill="#c38325"/><g fill="#fbb540"><path d="m112 48a8 8 0 0 1 -8-8v-16a8 8 0 0 1 16 0v16a8 8 0 0 1 -8 8z"/><path d="m76.008 57.647a8 8 0 0 1 -6.936-4l-8-13.856a8 8 0 1 1 13.856-8l8 13.856a8 8 0 0 1 -6.92 12z"/><path d="m49.639 84a7.957 7.957 0 0 1 -3.993-1.073l-13.856-8a8 8 0 0 1 8-13.856l13.856 8a8 8 0 0 1 -4.007 14.929z"/><path d="m40 120h-16a8 8 0 0 1 0-16h16a8 8 0 0 1 0 16z"/><path d="m35.8 164a8 8 0 0 1 -4.008-14.929l13.856-8a8 8 0 0 1 8 13.856l-13.856 8a7.969 7.969 0 0 1 -3.992 1.073z"/><path d="m147.992 57.647a8 8 0 0 1 -6.92-12l8-13.856a8 8 0 1 1 13.856 8l-8 13.856a8 8 0 0 1 -6.936 4z"/></g><path d="m136 208-16 16h-16l-16-16v-32h48z" fill="#cbcbcb"/><path d="m88 208h48l-16 16h-16z" fill="#eaeae8"/><path d="m495.258 284.634a8 8 0 0 0 -4.728-4.223l-24-8a7.992 7.992 0 0 0 -6.108.434l-11.986 5.993-55.336-34.582a27.973 27.973 0 0 0 -14.836-4.256h-5.954l27-60.751a8 8 0 0 0 .625-4.194c.2-.684-.126-1.588-1.076-3.171l-24-40a8 8 0 0 0 -13.516-.322l-13.011 19.518-17.523-6.571a8 8 0 0 0 -10.12 4.242l-19.989 44.967-30.079-8.2-3.19-12.758a27.5 27.5 0 0 0 -2.179-5.781 40.216 40.216 0 0 0 14.748-30.979v-22c0-.252-.015-.5-.038-.747l9.869-34.541a31.634 31.634 0 0 0 -58.712-22.838l-3.172 6.342-1.214-.4a30.363 30.363 0 0 0 -37.792 40.082l11.059 27.643v6.459a39.919 39.919 0 0 0 14.939 31.168l-1.44 2.161a86.314 86.314 0 0 0 -9.315 18.439l-49.171 100.232h-67.013a8 8 0 0 0 0 16h16v80h-16a8 8 0 0 0 0 16h.862a55.963 55.963 0 0 0 39.138 96h225a8 8 0 0 0 0-16h-9v-80h8a8 8 0 0 0 5.134-14.132 56.171 56.171 0 0 0 15.692-23.311l3.7 8.336 7.879 23.637a8 8 0 0 0 7.595 5.47c.436 0 49.32-8.11 49.32-8.11a8 8 0 0 0 6.68-7.89v-24a8 8 0 0 0 -4.422-7.155l-29.433-14.717-12.855-28.928 35.069 17.92s.009 0 .013 0a7.979 7.979 0 0 0 1.688.637l32 8a7.994 7.994 0 0 0 9.368-4.79l16-40a8 8 0 0 0 -.17-6.333zm-127.613-133.678 5.7 9.505-9.632-3.612zm-35.4 11.181 48.992 18.372-26.437 59.491h-5.9c.18-.323.365-.642.532-.975a25.825 25.825 0 0 0 -16.3-36.464l-16.807-4.584zm66.209 180.091-11.874 11.878-27.269-61.355a8 8 0 0 0 -7.311-4.751h-94.92l25.851-31.021 81.669 20.421a11.923 11.923 0 0 1 8.055 6.767zm-182.454-210.914 11.313-11.314h36.687v16a24.138 24.138 0 0 1 -9.906 19.406 27.451 27.451 0 0 0 -27.427.542 23.954 23.954 0 0 1 -10.667-19.948zm112.919 86.686a9.824 9.824 0 0 1 -4.795 19.051l-76.261-17.6 18.511-18.512zm-110.449 17.05c-.861-1.72-2.044-5-2.795-10.842a65.561 65.561 0 0 1 1.782-25.4l6.782 27.128c.011.043.026.07.037.111s.019.1.034.155a8 8 0 0 0 5.89 5.598l34.723 8.013 5.106 7.659-28.345 34.014zm18.593-27.427-7.275-25.455a11.337 11.337 0 0 1 2.075-9.783c.131-.168.279-.317.418-.477a7.95 7.95 0 0 0 1.53-1.472 11.4 11.4 0 0 1 14.73.544c.03.026.057.057.088.083a11.378 11.378 0 0 1 3.284 5.574l3.227 12.909zm-10.007 80.377h-22.112l11.056-22.112zm-21.874-205.351a14.379 14.379 0 0 1 16.492-5.658l7.8 2.6a8 8 0 0 0 9.685-4.011l6.275-12.549a15.634 15.634 0 0 1 29.016 11.287l-8.484 29.682h-41.966a8 8 0 0 0 -5.657 2.343l-7.421 7.421-7.122-17.813a14.362 14.362 0 0 1 1.382-13.302zm-4.548 148.684a43.115 43.115 0 0 0 3.524 10.872l2.9 5.795-20 40h-14.223zm-80.634 104.667h200a8 8 0 0 1 0 16h-200zm208 112h-200a8 8 0 0 1 0-16h200zm0-32h-200a24 24 0 0 0 0 48h200v16h-200a40 40 0 0 1 0-80h200zm-8-32h-200v-16h200a24 24 0 0 0 0-48h-200v-16h200a40 40 0 0 1 0 80zm112-6.777-34.572 5.762-4.275-12.824 16.427-16.427 22.42 11.21zm-44.728-99.558a27.828 27.828 0 0 0 -18.8-15.792l-23.487-5.873h33.279a11.988 11.988 0 0 1 6.36 1.824l54.2 33.878-4.148 16.6-43.039-21.992c-.217-.111-.438-.207-.66-.3zm79.894 40.88-17.466-4.366 5.168-20.669 9.745-4.873 12.807 4.269z"/><path d="m82.343 213.657 16 16a8 8 0 0 0 5.657 2.343h16a8 8 0 0 0 5.657-2.343l16-16a8 8 0 0 0 2.343-5.657v-28.734a84.664 84.664 0 0 0 24-59.266 56 56 0 0 0 -112 0 84.664 84.664 0 0 0 24 59.266v28.734a8 8 0 0 0 2.343 5.657zm45.657-8.97-11.313 11.313h-9.374l-11.313-11.313v-20.687h32zm-16-124.687a40.045 40.045 0 0 1 40 40 68.78 68.78 0 0 1 -19.332 48h-12.668v-28.686l13.657-13.657a8 8 0 0 0 -11.314-11.314l-10.343 10.344-10.343-10.344a8 8 0 0 0 -11.314 11.314l13.657 13.657v28.686h-12.668a68.78 68.78 0 0 1 -19.332-48 40.045 40.045 0 0 1 40-40z"/><path d="m112 48a8 8 0 0 0 8-8v-16a8 8 0 0 0 -16 0v16a8 8 0 0 0 8 8z"/><path d="m69.072 53.646a8 8 0 1 0 13.856-8l-8-13.856a8 8 0 1 0 -13.856 8z"/><path d="m31.79 74.928 13.856 8a8 8 0 1 0 8-13.856l-13.856-8a8 8 0 0 0 -8 13.856z"/><path d="m48 112a8 8 0 0 0 -8-8h-16a8 8 0 0 0 0 16h16a8 8 0 0 0 8-8z"/><path d="m45.646 141.072-13.856 8a8 8 0 1 0 8 13.856l13.856-8a8 8 0 0 0 -8-13.856z"/><path d="m144 56.574a8 8 0 0 0 10.928-2.928l8-13.856a8 8 0 1 0 -13.856-8l-8 13.856a8 8 0 0 0 2.928 10.928z"/></g></svg>