<svg id="Filled" height="512" viewBox="0 0 512 512" width="512" xmlns="http://www.w3.org/2000/svg"><g><g><g><rect fill="#4dccff" height="376" rx="10" width="464" x="24" y="24"/><path d="m24 72h464v272h-464z" fill="#f2faff"/><rect fill="#b3e9ff" height="96" rx="10" width="208" x="248" y="104"/><path d="m352 488h-192v-9.585a20 20 0 0 1 13.675-18.973l6.974-2.325a40 40 0 0 0 27.351-37.947v-19.17h96v19.17a40 40 0 0 0 27.351 37.947l6.974 2.325a20 20 0 0 1 13.675 18.973z" fill="#4dccff"/><path d="m208 400h96v24h-96z" fill="#25b1fa"/></g><g><path d="m144 24a72 72 0 0 1 72 72v160a0 0 0 0 1 0 0h-144a0 0 0 0 1 0 0v-160a72 72 0 0 1 72-72z" fill="#fb8656"/><path d="m144 192c-64 0-88 86.562-88 144h176c0-57.438-24-144-88-144z" fill="#fdbf67"/><path d="m180.228 336h51.772c0-24.827-4.484-55.1-14.744-81.462z" fill="#fdad67"/><path d="m192 208-16 56-32-24 24-40z" fill="#fffefa"/><path d="m96 208 16 56 32-24-24-40z" fill="#fffefa"/><path d="m160 160h-32l-8 40 24 40 24-40z" fill="#ffd4cf"/><path d="m160 160h-32l-4.891 24.457 1.34.8a38 38 0 0 0 39.1 0l1.34-.8z" fill="#fbb8b0"/><path d="m176 104a48.018 48.018 0 0 1 -45.207-31.83 30 30 0 0 0 -26.793 29.83v38.676a20 20 0 0 0 9.71 17.15l20 12a20 20 0 0 0 20.58 0l20-12a20 20 0 0 0 9.71-17.15v-36.676z" fill="#ffd4cf"/><path d="m240 248h36a20 20 0 0 0 20-20 20 20 0 0 0 -20-20h-6.459a20 20 0 0 0 -18.57 12.572z" fill="#ffd4cf"/><path d="m240 248h32l-24 88h-48z" fill="#fdbf67"/></g></g><path d="m478 16h-222v16h222a2 2 0 0 1 2 2v30h-262.68a80.477 80.477 0 0 0 -25.371-32h48.051v-16h-206a18.021 18.021 0 0 0 -18 18v356a18.021 18.021 0 0 0 18 18h62v-16h-62a2 2 0 0 1 -2-2v-46h448v46a2 2 0 0 1 -2 2h-366v16h88v11.169a31.961 31.961 0 0 1 -21.88 30.359l-6.974 2.324a27.964 27.964 0 0 0 -19.146 26.563v9.585a8 8 0 0 0 8 8h192a8 8 0 0 0 8-8v-9.585a27.964 27.964 0 0 0 -19.146-26.563l-6.973-2.324a31.96 31.96 0 0 1 -21.881-30.359v-11.169h166a18.021 18.021 0 0 0 18-18v-126h-16v64h-221.526l19.659-72.081a27.99 27.99 0 0 0 21.941-42.205l58.173-72.714-12.494-10-57.471 71.839a27.825 27.825 0 0 0 -12.282-2.839h-6.459a27.866 27.866 0 0 0 -26 17.6l-10.9 27.258-5.769 12.693c-.883-2.5-1.838-5.044-2.871-7.615v-153.936a80.049 80.049 0 0 0 -1.608-16h257.607v168h16v-214a18.021 18.021 0 0 0 -18-18zm-149.178 448.707 6.973 2.324a11.984 11.984 0 0 1 8.2 11.384v1.585h-175.995v-1.585a11.984 11.984 0 0 1 8.205-11.384l6.974-2.324a47.94 47.94 0 0 0 32.821-45.538v-11.169h80v11.169a47.94 47.94 0 0 0 32.822 45.538zm-294.822-432.707h62.051a80.477 80.477 0 0 0 -25.371 32h-38.68v-30a2 2 0 0 1 2-2zm207.89 296h-29.466l32.727-72h16.375zm16.51-104.457a11.943 11.943 0 0 1 11.141-7.543h6.459a12 12 0 0 1 0 24h-24.184zm-63.551 104.457h-90.849v-40h-16v40h-23.849c.913-24.388 5.929-49.721 14.074-70.628q.458-1.173.946-2.372h.829v-1.993a127.02 127.02 0 0 1 13.531-24.527l10.777 37.72a8 8 0 0 0 12.492 4.2l27.2-20.4 27.2 20.4a8 8 0 0 0 12.492-4.2l10.787-37.754a122 122 0 0 1 13.521 24.395v1.159h.485a188.422 188.422 0 0 1 8.365 25.6zm-79.523-120.241 18.1 30.17-16.929 12.7-10.341-36.193a62.9 62.9 0 0 1 9.17-6.677zm66.5 6.724-10.326 36.143-16.929-12.7 18.087-30.145a64.9 64.9 0 0 1 9.169 6.702zm-37.826-33.798a27.936 27.936 0 0 0 11.484-2.471l4.065 20.322-15.549 25.915-15.549-25.915 4.065-20.322a27.932 27.932 0 0 0 11.484 2.471zm6.174-17.719a11.976 11.976 0 0 1 -12.348 0l-20-12a12.059 12.059 0 0 1 -5.826-10.29v-38.676a21.952 21.952 0 0 1 14.1-20.553 56.162 56.162 0 0 0 49.9 30.553v28.676a12.059 12.059 0 0 1 -5.826 10.29zm24.091 27.567-4.172-20.859 8.313-4.988a28.143 28.143 0 0 0 13.594-24.01v-36.676a8 8 0 0 0 -8-8h-8a40.1 40.1 0 0 1 -37.675-26.524 8 8 0 0 0 -8.378-5.261 37.907 37.907 0 0 0 -33.947 37.785v38.676a28.143 28.143 0 0 0 13.594 24.01l8.313 4.988-4.173 20.862c-12.777 5.918-24.145 15.851-33.734 29.369v-67.905h-16v97.837q-.345.858-.683 1.726c-8.834 22.675-14.249 50.12-15.175 76.437h-16.142v-248h33.608a80.049 80.049 0 0 0 -1.608 16v40h16v-40a64 64 0 0 1 128 0v123.91c-8.592-12.171-19.624-22.86-33.735-29.377z"/><path d="m232 360h48v16h-48z"/><path d="m48 40h16v16h-16z"/><path d="m416 40h16v16h-16z"/><path d="m448 40h16v16h-16z"/><path d="m432 264h32v16h-32z"/><path d="m336 264h80v16h-80z"/><path d="m392 232h72v16h-72z"/><path d="m336 232h40v16h-40z"/><path d="m296 296h88v16h-88z"/><path d="m400 296h64v16h-64z"/><path d="m464 104a8 8 0 0 0 -8-8h-208a8 8 0 0 0 -8 8v80h16v-72h192v80h-112v16h120a8 8 0 0 0 8-8z"/></g></svg>