<svg id="Layer_1" enable-background="new 0 0 512 512" height="512" viewBox="0 0 512 512" width="512" xmlns="http://www.w3.org/2000/svg"><g><path d="m85.987 443.393c31.461 30.33 71.009 52.327 115.099 62.423l120.283-2.65c39.888-11.016 75.692-31.861 104.645-59.773l37.009-45.332c24.046-37.903 37.98-82.854 37.98-131.064 0-135.311-109.691-245.003-245.002-245.003s-245.003 109.693-245.003 245.004c0 48.21 13.934 93.161 37.98 131.064z" fill="#ffdd40"/><path d="m85.986 443.393h340.027c14.058-13.553 26.5-28.767 37.009-45.332v-120.064c-6.971-5.613-14.152-12.094-21.568-19.511-72.593-72.594-132.463 69.021-253.439-78.333-53.595-65.281-112.51-57.57-139.038-49.211v267.118c10.51 16.566 22.951 31.781 37.009 45.333z" fill="#e9efff"/><path d="m105.62 384.67s0-194.666 0-218c0-16.607 7.957-25.292 12.544-28.919 1.733-1.37 2.32-3.729 1.469-5.767-.174-.416-.317-.817-.474-1.226-29.279-9.15-55.021-4.592-70.181.185v267.118c10.509 16.565 22.951 31.779 37.009 45.332h56.03c-38.587-14.824-36.397-58.723-36.397-58.723z" fill="#d3dcfb"/><g><path d="m188.016 184.337c120.976 147.354 180.845 5.739 253.439 78.333 7.416 7.417 14.597 13.898 21.568 19.511v-192.333h-414.045v45.278c26.527-8.359 85.442-16.07 139.038 49.211z" fill="#9bd8f9"/></g><path d="m48.978 89.848v45.278c15.281-4.815 41.31-9.412 70.877.031.269-1.027.21-2.141-.221-3.173-10.635-25.47 9.43-37.11 14.426-39.548.742-.362 1.375-.901 1.853-1.574l.72-1.013h-87.655z" fill="#73c3f9"/><path d="m426.548 0h-341.096c-20.061 0-36.474 16.413-36.474 36.474v24.013h414.045v-24.013c-.001-20.061-16.414-36.474-36.475-36.474z" fill="#2a428c"/><path d="m156.799 56c-3.615-5.612-.689-10.633 1.038-12.828.68-.864 1.041-1.931 1.041-3.031v-19.763c0-1.172-.441-2.287-1.178-3.199-4.444-5.507-2.62-11.106-.795-14.355.495-.881.681-1.865.594-2.824h-72.048c-20.06 0-36.473 16.413-36.473 36.474v24.013h108.322c.559-1.459.378-3.123-.501-4.487z" fill="#1c2e7a"/><ellipse cx="93.863" cy="30.243" fill="#ff4155" rx="11.758" ry="11.758" transform="matrix(.16 -.987 .987 .16 48.975 118.05)"/><path d="m138.128 30.243c0 6.493-5.264 11.758-11.757 11.758-6.494 0-11.758-5.264-11.758-11.758s5.264-11.758 11.758-11.758c6.493.001 11.757 5.265 11.757 11.758z" fill="#ffdd40"/><ellipse cx="158.878" cy="30.243" fill="#38c674" rx="11.758" ry="11.758" transform="matrix(.161 -.987 .987 .161 103.485 182.193)"/><path d="m320.738 184.969h-129.477c-20.047 0-36.298 16.251-36.298 36.298 0 20.047 16.251 36.298 36.298 36.298h129.477c20.047 0 36.298-16.251 36.298-36.298 0-20.047-16.251-36.298-36.298-36.298z" fill="#38c674"/><path d="m351.135 233.564h-95.528c-14.791 0-26.781-11.99-26.781-26.781 0-9.002 4.446-16.96 11.257-21.815h-48.822c-20.047 0-36.298 16.251-36.298 36.298 0 20.047 16.251 36.298 36.298 36.298h129.477c15.833 0 29.291-10.142 34.252-24.28-1.259.182-2.545.28-3.855.28z" fill="#24b55e"/><path d="m168.545 58.542c0 18.445-14.953 33.397-33.398 33.397h327.875v-33.397z" fill="#e9efff"/><path d="m48.978 58.542v33.398h88.261c18.445 0 33.398-14.953 33.398-33.397h-121.659z" fill="#4fabf7"/><path d="m320.634 298.767h-1.703c-9.855 0-17.917 8.063-17.917 17.917v-12.056c0-9.576-6.973-17.986-16.48-19.127-11.334-1.361-21.058 7.555-21.058 18.631v-3.786c0-9.576-6.972-17.985-16.48-19.127-11.333-1.362-21.058 7.554-21.058 18.631v-59.683c0-9.576-6.973-17.985-16.481-19.127-11.334-1.361-21.058 7.555-21.058 18.631v99.616c0 1.962-1.623 3.534-3.583 3.463-5.061-.185-12.855-.362-19.146 6.761-13.778 15.599-16.699 38.007-7.374 56.62 8.789 16.994-3.003-1.692 38.47 51.873 2.798 3.523 4.32 7.89 4.32 12.389v35.424c17.654 4.043 36.034 6.183 54.914 6.183 22.64 0 44.557-3.085 65.368-8.833v-40.331c0-13.139 17.183-25.948 17.183-61.7.001-7.92.001-63.872.001-84.451 0-9.855-8.063-17.918-17.918-17.918z" fill="#f9ba8f"/><path d="m202.774 220.903h8.749c5.025 0 9.136 4.111 9.136 9.135v16.433c0 5.025-4.111 9.136-9.136 9.136h-8.749c-5.025 0-9.136-4.111-9.136-9.136v-16.433c0-5.024 4.111-9.135 9.136-9.135z" fill="#e9efff"/><path d="m179.365 377.897c4.989 0 9.034-4.045 9.034-9.034v-29.576c0 1.962-1.623 3.534-3.583 3.463-3.864-.141-9.319-.266-14.484 2.846v23.267c0 4.989 4.044 9.034 9.033 9.034z" fill="#fcad6d"/><g><path d="m327.222 38.087h-117.975c-4.332 0-7.843-3.511-7.843-7.843s3.512-7.843 7.843-7.843h117.975c4.332 0 7.843 3.511 7.843 7.843 0 4.331-3.512 7.843-7.843 7.843z" fill="#3c58a0"/></g><g><path d="m423.057 38.087h-10.223c-4.332 0-7.843-3.511-7.843-7.843s3.512-7.843 7.843-7.843h10.223c4.332 0 7.843 3.511 7.843 7.843 0 4.331-3.512 7.843-7.843 7.843z" fill="#3c58a0"/></g><g><path d="m387.515 38.087h-10.223c-4.332 0-7.843-3.511-7.843-7.843s3.512-7.843 7.843-7.843h10.223c4.332 0 7.843 3.511 7.843 7.843 0 4.331-3.512 7.843-7.843 7.843z" fill="#3c58a0"/></g><path d="m321.368 462.836c-64.563 51.832-120.283 7.557-120.283 7.557v35.424c17.655 4.043 36.035 6.183 54.915 6.183 22.64 0 44.557-3.086 65.368-8.833z" fill="#fcad6d"/></g></svg>