<svg id="Flat" height="512" viewBox="0 0 512 512" width="512" xmlns="http://www.w3.org/2000/svg"><g><g><rect fill="#4dccff" height="376" rx="10" width="464" x="24" y="24"/><path d="m40 72h432v272h-432z" fill="#f2faff"/><rect fill="#b3e9ff" height="96" rx="10" width="208" x="248" y="104"/><path d="m243.807 180h133.185v16h-133.185z" fill="#fdbf67" transform="matrix(.625 -.781 .781 .625 -30.308 312.942)"/><path d="m352 488h-192v-9.585a20 20 0 0 1 13.675-18.973l6.974-2.325a40 40 0 0 0 27.351-37.947v-27.17h96v27.17a40 40 0 0 0 27.351 37.947l6.974 2.325a20 20 0 0 1 13.675 18.973z" fill="#4dccff"/><path d="m208 400h96v24h-96z" fill="#25b1fa"/></g><path d="m232 360h48v16h-48z" fill="#f2faff"/><path d="m48 40h16v16h-16z" fill="#f2faff"/><path d="m416 40h16v16h-16z" fill="#f2faff"/><path d="m448 40h16v16h-16z" fill="#f2faff"/><g fill="#b3e9ff"><path d="m424 264h32v16h-32z"/><path d="m328 264h80v16h-80z"/><path d="m384 232h72v16h-72z"/><path d="m328 232h40v16h-40z"/><path d="m288 296h88v16h-88z"/><path d="m392 296h64v16h-64z"/></g><g><path d="m144 32a72 72 0 0 1 72 72v160a0 0 0 0 1 0 0h-144a0 0 0 0 1 0 0v-160a72 72 0 0 1 72-72z" fill="#fb8656"/><path d="m144 200c-64 0-88 86.562-88 144h176c0-57.438-24-144-88-144z" fill="#fdbf67"/><path d="m180.228 344h51.772c0-24.827-4.484-55.1-14.744-81.462z" fill="#fdad67"/><path d="m165.863 203.726 2.137 4.274-24 40 32 24 14.885-52.1a68.526 68.526 0 0 0 -25.022-16.174z" fill="#fffefa"/><path d="m97.115 219.9 14.885 52.1 32-24-24-40 2.137-4.274a68.526 68.526 0 0 0 -25.022 16.174z" fill="#fffefa"/><path d="m160 168h-32l-8 40 24 40 24-40z" fill="#ffd4cf"/><path d="m160 168h-32l-4.891 24.457 1.34.8a38 38 0 0 0 39.1 0l1.34-.8z" fill="#fbb8b0"/><path d="m176 112a48.018 48.018 0 0 1 -45.207-31.83 30 30 0 0 0 -26.793 29.83v38.676a20 20 0 0 0 9.71 17.15l20 12a20 20 0 0 0 20.58 0l20-12a20 20 0 0 0 9.71-17.15v-36.676z" fill="#ffd4cf"/><path d="m240 256h36a20 20 0 0 0 20-20 20 20 0 0 0 -20-20h-6.459a20 20 0 0 0 -18.57 12.572z" fill="#ffd4cf"/><path d="m240 256h32l-24 88h-48z" fill="#fdbf67"/></g></g></svg>